<svg width="40" height="40" viewBox="0 0 40 40" fill="none" xmlns="http://www.w3.org/2000/svg">
<path d="M24.525 15.2992C24.525 12.6897 22.4095 10.5742 19.8 10.5742C17.1904 10.5742 15.075 12.6897 15.075 15.2992C15.075 17.9088 17.1904 20.0242 19.8 20.0242C22.4095 20.0242 24.525 17.9088 24.525 15.2992Z" stroke="white" stroke-width="1.35"/>
<path d="M28.8 28.7992C28.8 26.9992 28.8 26.5492 27.9 25.1992C27.18 24.1192 24.3 23.5495 23.85 23.3992C23.4 23.2489 21.15 22.9492 19.8 22.9492C18.45 22.9492 16.2 23.2489 15.75 23.3992C15.3 23.5495 12.42 24.1192 11.7 25.1992C10.8 26.5492 10.8 26.9992 10.8 28.7992" stroke="white" stroke-width="1.35" stroke-linecap="round"/>
</svg>
